<svg width="49" height="49" viewBox="0 0 49 49" fill="none" xmlns="http://www.w3.org/2000/svg">
<rect x="0.330078" y="0.839844" width="48" height="48" rx="24" fill="#EC5B37"/>
<g clip-path="url(#clip0_73_583)">
<g clip-path="url(#clip1_73_583)">
<g clip-path="url(#clip2_73_583)">
<path d="M21.6805 27.742L18.6805 24.742L21.6805 21.7421M26.4805 21.7421L29.4805 24.742L26.4805 27.742M16.8805 34.342C15.555 34.342 14.4805 33.2675 14.4805 31.942V17.5421C14.4805 16.2166 15.555 15.1421 16.8805 15.1421H31.2805C32.606 15.1421 33.6805 16.2166 33.6805 17.5421V31.942C33.6805 33.2675 32.606 34.342 31.2805 34.342H16.8805Z" stroke="white" stroke-width="2" stroke-linecap="round" stroke-linejoin="round"/>
</g>
</g>
</g>
<defs>
<clipPath id="clip0_73_583">
<rect width="22" height="22" fill="white" transform="translate(13.3301 13.8398)"/>
</clipPath>
<clipPath id="clip1_73_583">
<rect width="22" height="22" fill="white" transform="translate(13.3301 13.8398)"/>
</clipPath>
<clipPath id="clip2_73_583">
<rect width="22" height="22" fill="white" transform="translate(13.3301 13.8398)"/>
</clipPath>
</defs>
</svg>
