<svg width="49" height="49" viewBox="0 0 49 49" fill="none" xmlns="http://www.w3.org/2000/svg">
<rect x="0.330078" y="0.839844" width="48" height="48" rx="24" fill="#EC5B37"/>
<g clip-path="url(#clip0_1_257)">
<g clip-path="url(#clip1_1_257)">
<g clip-path="url(#clip2_1_257)">
<path d="M24.0801 19.2422C17.8281 19.2422 13.0176 24.75 13.0176 24.75L12.5723 25.2422L13.0176 25.7344C13.0176 25.7344 17.4033 30.7353 23.2363 31.1953C23.5147 31.2304 23.793 31.2421 24.0801 31.2421C24.3672 31.2421 24.6455 31.2304 24.9239 31.1953C30.7569 30.7353 35.1426 25.7344 35.1426 25.7344L35.5879 25.2422L35.1426 24.75C35.1426 24.75 30.3321 19.2422 24.0801 19.2422ZM24.0801 20.7422C25.7324 20.7422 27.2559 21.1934 28.5801 21.7969C29.0576 22.5879 29.3301 23.499 29.3301 24.4922C29.3301 27.2021 27.2969 29.4287 24.666 29.7187C24.6514 29.7216 24.6338 29.7158 24.6192 29.7187C24.4405 29.7275 24.2617 29.7421 24.0801 29.7421C23.8809 29.7421 23.6875 29.7304 23.4942 29.7187C20.8633 29.4287 18.8301 27.2021 18.8301 24.4922C18.8301 23.5137 19.0937 22.6025 19.5566 21.8203H19.5332C20.8691 21.2051 22.4102 20.7422 24.0801 20.7422ZM24.0801 22.2422C22.8379 22.2422 21.8301 23.25 21.8301 24.4922C21.8301 25.7344 22.8379 26.7422 24.0801 26.7422C25.3223 26.7422 26.3301 25.7344 26.3301 24.4922C26.3301 23.25 25.3223 22.2422 24.0801 22.2422ZM17.5176 22.9453C17.4004 23.4492 17.3301 23.9561 17.3301 24.4922C17.3301 25.8076 17.7051 27.0381 18.3613 28.0781C16.4717 26.9854 15.1592 25.6816 14.7285 25.2422C15.0889 24.873 16.0937 23.8945 17.5176 22.9453ZM30.6426 22.9453C32.0664 23.8945 33.0713 24.873 33.4317 25.2422C33.001 25.6816 31.6885 26.9854 29.7989 28.0781C30.4551 27.0381 30.8301 25.8076 30.8301 24.4922C30.8301 23.9561 30.7598 23.4434 30.6426 22.9453Z" fill="white"/>
</g>
</g>
</g>
<defs>
<clipPath id="clip0_1_257">
<rect width="24" height="13" fill="white" transform="translate(12.3301 18.3398)"/>
</clipPath>
<clipPath id="clip1_1_257">
<rect width="24" height="13" fill="white" transform="translate(12.3301 18.3398)"/>
</clipPath>
<clipPath id="clip2_1_257">
<rect width="24" height="13" fill="white" transform="translate(12.3301 18.3398)"/>
</clipPath>
</defs>
</svg>
