<svg width="49" height="49" viewBox="0 0 49 49" fill="none" xmlns="http://www.w3.org/2000/svg">
<rect x="0.330078" y="0.839844" width="48" height="48" rx="24" fill="#EC5B37"/>
<g clip-path="url(#clip0_73_639)">
<g clip-path="url(#clip1_73_639)">
<g clip-path="url(#clip2_73_639)">
<path d="M19.0801 21.902C19.0801 20.972 19.8401 20.2119 20.7701 20.2119C21.7001 20.2119 22.4601 20.972 22.4601 21.902C22.4601 23.782 19.7901 23.9819 19.2001 25.7719C19.0801 26.1419 19.3901 26.5119 19.7801 26.5119H22.4601M28.1201 26.5019V20.792C28.1201 20.532 27.9501 20.3019 27.7001 20.2319C27.4501 20.1619 27.1801 20.2619 27.0401 20.4819C26.3201 21.6419 25.5401 22.9619 24.8601 24.1219C24.7501 24.3119 24.7501 24.5619 24.8601 24.7519C24.9701 24.9419 25.1801 25.0618 25.4101 25.0618H29.0801M30.0801 31.6019H29.3201C28.5201 31.6019 27.7601 31.9119 27.2001 32.4719L25.4901 34.1619C24.7101 34.9319 23.4401 34.9319 22.6601 34.1619L20.9501 32.4719C20.3901 31.9119 19.6201 31.6019 18.8301 31.6019H18.0801C16.4201 31.6019 15.0801 30.2719 15.0801 28.6319V17.7219C15.0801 16.0819 16.4201 14.752 18.0801 14.752H30.0801C31.7401 14.752 33.0801 16.0819 33.0801 17.7219V28.6319C33.0801 30.2619 31.7401 31.6019 30.0801 31.6019Z" stroke="white" stroke-width="1.5" stroke-linecap="round" stroke-linejoin="round"/>
</g>
</g>
</g>
<defs>
<clipPath id="clip0_73_639">
<rect width="20" height="22" fill="white" transform="translate(14.3301 13.8398)"/>
</clipPath>
<clipPath id="clip1_73_639">
<rect width="20" height="22" fill="white" transform="translate(14.3301 13.8398)"/>
</clipPath>
<clipPath id="clip2_73_639">
<rect width="20" height="22" fill="white" transform="translate(14.3301 13.8398)"/>
</clipPath>
</defs>
</svg>
