<svg width="40" height="41" viewBox="0 0 40 41" fill="none" xmlns="http://www.w3.org/2000/svg">
<rect x="0.5" y="1" width="39" height="39" rx="19.5" stroke="#E2E3E4"/>
<path d="M19.9951 17.1055C21.7178 17.1055 23.1396 18.5273 23.1396 20.25C23.1396 22 21.7178 23.3945 19.9951 23.3945C18.2451 23.3945 16.8506 22 16.8506 20.25C16.8506 18.5273 18.2451 17.1055 19.9951 17.1055ZM19.9951 22.3008C21.1162 22.3008 22.0186 21.3984 22.0186 20.25C22.0186 19.1289 21.1162 18.2266 19.9951 18.2266C18.8467 18.2266 17.9443 19.1289 17.9443 20.25C17.9443 21.3984 18.874 22.3008 19.9951 22.3008ZM23.9873 16.9961C23.9873 17.4062 23.6592 17.7344 23.249 17.7344C22.8389 17.7344 22.5107 17.4062 22.5107 16.9961C22.5107 16.5859 22.8389 16.2578 23.249 16.2578C23.6592 16.2578 23.9873 16.5859 23.9873 16.9961ZM26.0654 17.7344C26.1201 18.7461 26.1201 21.7812 26.0654 22.793C26.0107 23.7773 25.792 24.625 25.0811 25.3633C24.3701 26.0742 23.4951 26.293 22.5107 26.3477C21.499 26.4023 18.4639 26.4023 17.4521 26.3477C16.4678 26.293 15.6201 26.0742 14.8818 25.3633C14.1709 24.625 13.9521 23.7773 13.8975 22.793C13.8428 21.7812 13.8428 18.7461 13.8975 17.7344C13.9521 16.75 14.1709 15.875 14.8818 15.1641C15.6201 14.4531 16.4678 14.2344 17.4521 14.1797C18.4639 14.125 21.499 14.125 22.5107 14.1797C23.4951 14.2344 24.3701 14.4531 25.0811 15.1641C25.792 15.875 26.0107 16.75 26.0654 17.7344ZM24.7529 23.8594C25.0811 23.0664 24.999 21.1523 24.999 20.25C24.999 19.375 25.0811 17.4609 24.7529 16.6406C24.5342 16.1211 24.124 15.6836 23.6045 15.4922C22.7842 15.1641 20.8701 15.2461 19.9951 15.2461C19.0928 15.2461 17.1787 15.1641 16.3857 15.4922C15.8389 15.7109 15.4287 16.1211 15.21 16.6406C14.8818 17.4609 14.9639 19.375 14.9639 20.25C14.9639 21.1523 14.8818 23.0664 15.21 23.8594C15.4287 24.4062 15.8389 24.8164 16.3857 25.0352C17.1787 25.3633 19.0928 25.2812 19.9951 25.2812C20.8701 25.2812 22.7842 25.3633 23.6045 25.0352C24.124 24.8164 24.5615 24.4062 24.7529 23.8594Z" fill="#202020"/>
</svg>
