<svg width="40" height="41" viewBox="0 0 40 41" fill="none" xmlns="http://www.w3.org/2000/svg">
<rect x="0.5" y="1" width="39" height="39" rx="19.5" stroke="#E2E3E4"/>
<path d="M16.6045 25.5H14.0615V17.3242H16.6045V25.5ZM15.3193 16.2305C14.5264 16.2305 13.8701 15.5469 13.8701 14.7266C13.8701 13.9336 14.5264 13.2773 15.3193 13.2773C16.1396 13.2773 16.7959 13.9336 16.7959 14.7266C16.7959 15.5469 16.1396 16.2305 15.3193 16.2305ZM26.0928 25.5H23.5771V21.5352C23.5771 20.5781 23.5498 19.375 22.2373 19.375C20.9248 19.375 20.7334 20.3867 20.7334 21.4531V25.5H18.1904V17.3242H20.624V18.4453H20.6514C21.0068 17.8164 21.8271 17.1328 23.0576 17.1328C25.6279 17.1328 26.1201 18.8281 26.1201 21.0156V25.5H26.0928Z" fill="#202020"/>
</svg>
