<svg width="113" height="24" viewBox="0 0 113 24" fill="none" xmlns="http://www.w3.org/2000/svg">
<path d="M0 11.0132C0 6.31147 3.81146 2.5 8.51314 2.5V12.9866C8.51314 17.6882 4.70168 21.4997 0 21.4997V11.0132Z" fill="#EC5B37"/>
<path d="M9.74805 6.96058C9.74805 4.49707 11.7451 2.5 14.2086 2.5H14.5394C17.0029 2.5 19 4.49707 19 6.96058C19 9.42409 17.0029 11.4212 14.5394 11.4212H14.2086C11.7451 11.4212 9.74805 9.42409 9.74805 6.96058Z" fill="#EC5B37"/>
<path d="M9.74805 17.0387C9.74805 14.5752 11.7451 12.5781 14.2086 12.5781H14.5394C17.0029 12.5781 19 14.5752 19 17.0387C19 19.5022 17.0029 21.4993 14.5394 21.4993H14.2086C11.7451 21.4993 9.74805 19.5022 9.74805 17.0387Z" fill="#EC5B37"/>
<path d="M28.1535 20V4H31.1535V10.54H33.2535V4H36.2535V20H33.2535V13.18H31.1535V20H28.1535ZM37.8905 6.26V4H40.8905V6.26H37.8905ZM37.8905 20V8H40.8905V20H37.8905ZM45.079 20.2C44.2523 20.2 43.6123 19.94 43.159 19.42C42.7123 18.8933 42.459 18.0267 42.399 16.82C42.3857 16.5067 42.3757 16.1 42.369 15.6C42.3623 15.0933 42.359 14.56 42.359 14C42.359 13.44 42.3623 12.91 42.369 12.41C42.3757 11.9033 42.3857 11.4933 42.399 11.18C42.459 9.96667 42.719 9.1 43.179 8.58C43.6457 8.06 44.2923 7.8 45.119 7.8C45.7523 7.8 46.219 7.93 46.519 8.19C46.8257 8.45 47.119 8.82 47.399 9.3H47.819V4H50.819V20H47.819V18.7H47.399C47.119 19.18 46.819 19.55 46.499 19.81C46.1857 20.07 45.7123 20.2 45.079 20.2ZM46.319 18.02C46.5923 18.02 46.879 17.9433 47.179 17.79C47.4857 17.63 47.699 17.42 47.819 17.16V10.84C47.699 10.58 47.4857 10.3733 47.179 10.22C46.879 10.06 46.5923 9.98 46.319 9.98C46.0123 9.98 45.7857 10.0567 45.639 10.21C45.499 10.3633 45.419 10.6 45.399 10.92C45.3657 11.5 45.3423 12.17 45.329 12.93C45.3223 13.69 45.3223 14.4433 45.329 15.19C45.3423 15.93 45.3657 16.56 45.399 17.08C45.419 17.4 45.499 17.6367 45.639 17.79C45.7857 17.9433 46.0123 18.02 46.319 18.02ZM55.9702 20.2C54.6036 20.2 53.6069 19.9233 52.9802 19.37C52.3536 18.8167 52.0036 17.9067 51.9302 16.64C51.9169 16.4133 51.9069 16.0667 51.9002 15.6C51.8936 15.1267 51.8902 14.6133 51.8902 14.06C51.8902 13.5067 51.8936 12.9867 51.9002 12.5C51.9069 12.0133 51.9169 11.6467 51.9302 11.4C52.0236 10.1067 52.3769 9.18333 52.9902 8.63C53.6102 8.07667 54.5902 7.8 55.9302 7.8C57.2702 7.8 58.2436 8.07 58.8502 8.61C59.4569 9.15 59.7902 10.04 59.8502 11.28C59.8569 11.4267 59.8602 11.6867 59.8602 12.06C59.8669 12.4267 59.8669 12.8333 59.8602 13.28C59.8602 13.72 59.8502 14.1267 59.8302 14.5H54.8902C54.8902 14.9267 54.8936 15.35 54.9002 15.77C54.9136 16.1833 54.9236 16.58 54.9302 16.96C54.9436 17.32 55.0302 17.5767 55.1902 17.73C55.3502 17.8833 55.6102 17.96 55.9702 17.96C56.2902 17.96 56.5202 17.8833 56.6602 17.73C56.8069 17.5767 56.8902 17.32 56.9102 16.96C56.9236 16.8 56.9302 16.5767 56.9302 16.29C56.9302 16.0033 56.9236 15.6867 56.9102 15.34H59.8302C59.8436 15.4067 59.8536 15.5867 59.8602 15.88C59.8669 16.1667 59.8636 16.42 59.8502 16.64C59.7902 17.9067 59.4569 18.8167 58.8502 19.37C58.2502 19.9233 57.2902 20.2 55.9702 20.2ZM54.8902 12.44H56.9302C56.9302 12.2 56.9269 11.9733 56.9202 11.76C56.9202 11.5467 56.9169 11.3667 56.9102 11.22C56.9102 11.0733 56.9102 10.98 56.9102 10.94C56.8902 10.62 56.8036 10.39 56.6502 10.25C56.5036 10.11 56.2636 10.04 55.9302 10.04C55.5836 10.04 55.3336 10.11 55.1802 10.25C55.0269 10.39 54.9436 10.62 54.9302 10.94C54.9236 11.18 54.9169 11.4267 54.9102 11.68C54.9102 11.9267 54.9036 12.18 54.8902 12.44ZM61.2199 20V4H65.5599L66.7599 9.1L67.8599 17.36H68.3799L67.8199 10.86L67.5799 4H70.4799V20H65.9199L64.7199 14.76L63.8999 6.62H63.3399L63.8599 13.86L64.1199 20H61.2199ZM76.0893 20.2C75.1093 20.2 74.326 20.0667 73.7393 19.8C73.1593 19.5333 72.7326 19.1067 72.4593 18.52C72.186 17.9267 72.0226 17.1467 71.9693 16.18C71.9626 15.9533 71.9526 15.65 71.9393 15.27C71.9326 14.8833 71.9293 14.47 71.9293 14.03C71.9293 13.59 71.9326 13.17 71.9393 12.77C71.946 12.37 71.956 12.0467 71.9693 11.8C72.0226 10.8467 72.1826 10.0767 72.4493 9.49C72.7226 8.90333 73.1493 8.47667 73.7293 8.21C74.316 7.93667 75.1026 7.8 76.0893 7.8C77.0826 7.8 77.866 7.93667 78.4393 8.21C79.0193 8.48333 79.4426 8.91333 79.7093 9.5C79.976 10.0867 80.136 10.8533 80.1893 11.8C80.2026 12.0267 80.2126 12.3333 80.2193 12.72C80.226 13.1067 80.2293 13.52 80.2293 13.96C80.2293 14.4 80.226 14.8167 80.2193 15.21C80.2126 15.6033 80.2026 15.9267 80.1893 16.18C80.136 17.1333 79.976 17.9067 79.7093 18.5C79.4426 19.0867 79.0193 19.5167 78.4393 19.79C77.866 20.0633 77.0826 20.2 76.0893 20.2ZM76.0893 17.96C76.4826 17.96 76.7626 17.8733 76.9293 17.7C77.096 17.52 77.1826 17.2667 77.1893 16.94C77.2026 16.48 77.2126 16.0033 77.2193 15.51C77.2326 15.01 77.2393 14.5033 77.2393 13.99C77.2393 13.4767 77.2326 12.9733 77.2193 12.48C77.2126 11.98 77.2026 11.5 77.1893 11.04C77.1826 10.72 77.096 10.4733 76.9293 10.3C76.7626 10.1267 76.4826 10.04 76.0893 10.04C75.7093 10.04 75.4293 10.1267 75.2493 10.3C75.076 10.4733 74.9826 10.72 74.9693 11.04C74.956 11.5 74.946 11.98 74.9393 12.48C74.9326 12.98 74.9293 13.4867 74.9293 14C74.9293 14.5067 74.9326 15.01 74.9393 15.51C74.946 16.01 74.956 16.4867 74.9693 16.94C74.9826 17.2667 75.076 17.52 75.2493 17.7C75.4293 17.8733 75.7093 17.96 76.0893 17.96ZM86.6287 20.2C85.102 20.2 84.002 19.9233 83.3287 19.37C82.662 18.8167 82.3287 17.9067 82.3287 16.64V10.26H81.1887V8H82.3487V4.6H85.3687V8H87.3887V10.26H85.3287V16.98C85.3287 17.34 85.412 17.5967 85.5787 17.75C85.752 17.9033 86.102 17.98 86.6287 17.98C86.782 17.98 86.932 17.9767 87.0787 17.97C87.232 17.9633 87.402 17.96 87.5887 17.96V20.1C87.4487 20.14 87.2987 20.1667 87.1387 20.18C86.9787 20.1933 86.8087 20.2 86.6287 20.2ZM88.7009 20V4H91.7009V9.3H92.2209C92.5009 8.82 92.7942 8.45 93.1009 8.19C93.4075 7.93 93.8742 7.8 94.5009 7.8C95.3342 7.8 95.9842 8.06 96.4509 8.58C96.9242 9.1 97.1609 9.96667 97.1609 11.18V20H94.1609V10.92C94.1609 10.6 94.0775 10.3633 93.9109 10.21C93.7509 10.0567 93.5142 9.98 93.2009 9.98C92.9342 9.98 92.6475 10.06 92.3409 10.22C92.0342 10.3733 91.8209 10.58 91.7009 10.84V20H88.7009ZM98.7695 6.26V4H101.769V6.26H98.7695ZM98.7695 20V8H101.769V20H98.7695ZM103.408 20V8H106.408V9.3H106.928C107.208 8.82 107.501 8.45 107.808 8.19C108.115 7.93 108.581 7.8 109.208 7.8C110.041 7.8 110.691 8.06 111.158 8.58C111.631 9.1 111.868 9.96667 111.868 11.18V20H108.868V10.92C108.868 10.6 108.785 10.3633 108.618 10.21C108.458 10.0567 108.221 9.98 107.908 9.98C107.641 9.98 107.355 10.06 107.048 10.22C106.741 10.3733 106.528 10.58 106.408 10.84V20H103.408Z" fill="#202020"/>
</svg>
