<svg width="33" height="32" viewBox="0 0 33 32" fill="none" xmlns="http://www.w3.org/2000/svg">
<g clip-path="url(#clip0_1_412)">
<g clip-path="url(#clip1_1_412)">
<g clip-path="url(#clip2_1_412)">
<path d="M16.1899 0L18.7988 6.26347L24.1899 2.14359L23.3175 8.87236L30.0463 8L25.9264 13.3911L32.1899 16L25.9264 18.6089L30.0463 24L23.3175 23.1276L24.1899 29.8564L18.7988 25.7365L16.1899 32L13.581 25.7365L8.18994 29.8564L9.0623 23.1276L2.33353 24L6.45341 18.6089L0.189941 16L6.45341 13.3911L2.33353 8L9.0623 8.87236L8.18994 2.14359L13.581 6.26347L16.1899 0Z" fill="#EC5B37"/>
</g>
</g>
</g>
<defs>
<clipPath id="clip0_1_412">
<rect width="32" height="32" fill="white" transform="translate(0.189941)"/>
</clipPath>
<clipPath id="clip1_1_412">
<rect width="32" height="32" fill="white" transform="translate(0.189941)"/>
</clipPath>
<clipPath id="clip2_1_412">
<rect width="32" height="32" fill="white" transform="translate(0.189941)"/>
</clipPath>
</defs>
</svg>
