<svg width="40" height="41" viewBox="0 0 40 41" fill="none" xmlns="http://www.w3.org/2000/svg">
<rect x="0.5" y="1" width="39" height="39" rx="19.5" stroke="#E2E3E4"/>
<path d="M25.5508 17.4062C25.5508 17.543 25.5508 17.6523 25.5508 17.7891C25.5508 21.5898 22.6797 25.9375 17.4023 25.9375C15.7617 25.9375 14.2578 25.4727 13 24.6523C13.2188 24.6797 13.4375 24.707 13.6836 24.707C15.0234 24.707 16.2539 24.2422 17.2383 23.4766C15.9805 23.4492 14.9141 22.6289 14.5586 21.4805C14.75 21.5078 14.9141 21.5352 15.1055 21.5352C15.3516 21.5352 15.625 21.4805 15.8438 21.4258C14.5312 21.1523 13.5469 20.0039 13.5469 18.6094V18.582C13.9297 18.8008 14.3945 18.9102 14.8594 18.9375C14.0664 18.418 13.5742 17.543 13.5742 16.5586C13.5742 16.0117 13.7109 15.5195 13.957 15.1094C15.3789 16.832 17.5117 17.9805 19.8906 18.1172C19.8359 17.8984 19.8086 17.6797 19.8086 17.4609C19.8086 15.875 21.0938 14.5898 22.6797 14.5898C23.5 14.5898 24.2383 14.918 24.7852 15.4922C25.4141 15.3555 26.043 15.1094 26.5898 14.7812C26.3711 15.4648 25.9336 16.0117 25.332 16.3672C25.9062 16.3125 26.4805 16.1484 26.9727 15.9297C26.5898 16.5039 26.0977 16.9961 25.5508 17.4062Z" fill="#202020"/>
</svg>
